<?xml version="1.0" encoding="UTF-8"?>
<svg version="1.1" xmlns="http://www.w3.org/2000/svg" width="512" height="512">
<path d="M0 0 C5.90388603 3.57513098 10.13412084 7.0739256 12.1328125 13.828125 C12.47364463 15.29977999 12.80410219 16.77387008 13.125 18.25 C13.29386719 18.97574219 13.46273438 19.70148437 13.63671875 20.44921875 C15.43067012 28.37368109 16.16607584 36.00567638 16.125 44.125 C16.12886719 44.89714844 16.13273437 45.66929688 16.13671875 46.46484375 C16.12941084 50.75458452 15.85027399 54.77562287 15 59 C19.66032832 60.57089719 24.07027938 61.78659218 29 62 C31.68312364 60.40078724 33.12906048 58.65098017 35.07421875 56.22265625 C38.3108587 52.48706167 42.3462996 50.52580341 47 49 C52.34278793 48.90944427 56.91888622 50.55529753 61 54 C66.37728969 60.27877649 65.39366636 68.21415422 65 76 C65.75337646 76.38369751 65.75337646 76.38369751 66.52197266 76.77514648 C96.37181541 92.04707994 124.86318849 111.71357088 145.71044922 138.35986328 C146.6268065 139.52534761 147.55117044 140.68455623 148.48095703 141.83935547 C157.17067523 152.6325903 164.43727683 163.80114893 171 176 C171.36963867 176.67885254 171.73927734 177.35770508 172.12011719 178.05712891 C199.95941291 229.61755725 204.67464863 292.51419607 188.68359375 348.51953125 C175.68398092 391.82348607 149.66243816 431.96227798 114 460 C113.03707031 460.77988281 112.07414062 461.55976563 111.08203125 462.36328125 C81.29237315 486.0364316 46.25820099 500.92018718 9 508 C8.17516113 508.16371094 7.35032227 508.32742188 6.50048828 508.49609375 C-48.69112375 519.07749213 -110.6722105 505.49218033 -157.30859375 474.5546875 C-176.32520644 461.53824034 -194.45334441 446.8631056 -208.71044922 428.64013672 C-209.6268065 427.47465239 -210.55117044 426.31544377 -211.48095703 425.16064453 C-234.77323526 396.23001376 -249.69163918 362.32221014 -257 326 C-257.16516113 325.20770996 -257.33032227 324.41541992 -257.50048828 323.59912109 C-267.29476083 274.46570213 -257.58305744 221.6330057 -234.65893555 177.68969727 C-231.63216461 171.72894847 -229.95573001 166.57054842 -229.35546875 159.86328125 C-226.99289209 140.83285604 -208.56797325 120.36355769 -194 109 C-193.10667969 108.27039063 -192.21335937 107.54078125 -191.29296875 106.7890625 C-171.16786708 90.73961035 -149.01421637 79.92284503 -125 71 C-125.59167969 70.76925781 -126.18335938 70.53851563 -126.79296875 70.30078125 C-132.73649419 67.84774383 -136.92772373 65.39099754 -140.375 59.75 C-141.51382116 54.73918691 -141.34108433 50.35005059 -138.75390625 45.81640625 C-131.00113701 35.98135846 -118.8437824 33.61848298 -107 32 C-84.24611844 29.88133501 -65.30324986 39.75237081 -47 52 C-35.41552077 41.36622271 -27.18321009 26.94386372 -21.75 12.25 C-19.33807987 5.89717466 -15.12110448 2.45093538 -9.0390625 -0.328125 C-5.57805026 -1.46853516 -3.448662 -1.1084985 0 0 Z " fill="#E93612" transform="translate(296,1)"/>
<path d="M0 0 C5.90388603 3.57513098 10.13412084 7.0739256 12.1328125 13.828125 C12.47364463 15.29977999 12.80410219 16.77387008 13.125 18.25 C13.29386719 18.97574219 13.46273438 19.70148437 13.63671875 20.44921875 C15.43067012 28.37368109 16.16607584 36.00567638 16.125 44.125 C16.12886719 44.89714844 16.13273437 45.66929688 16.13671875 46.46484375 C16.12941084 50.75458452 15.85027399 54.77562287 15 59 C19.66032832 60.57089719 24.07027938 61.78659218 29 62 C31.68312364 60.40078724 33.12906048 58.65098017 35.07421875 56.22265625 C38.3108587 52.48706167 42.3462996 50.52580341 47 49 C52.34278793 48.90944427 56.91888622 50.55529753 61 54 C66.37728969 60.27877649 65.39366636 68.21415422 65 76 C65.75337646 76.38369751 65.75337646 76.38369751 66.52197266 76.77514648 C96.37181541 92.04707994 124.86318849 111.71357088 145.71044922 138.35986328 C146.6268065 139.52534761 147.55117044 140.68455623 148.48095703 141.83935547 C157.17067523 152.6325903 164.43727683 163.80114893 171 176 C171.36963867 176.67885254 171.73927734 177.35770508 172.12011719 178.05712891 C199.95941291 229.61755725 204.67464863 292.51419607 188.68359375 348.51953125 C175.68398092 391.82348607 149.66243816 431.96227798 114 460 C113.03707031 460.77988281 112.07414062 461.55976563 111.08203125 462.36328125 C81.29237315 486.0364316 46.25820099 500.92018718 9 508 C8.17516113 508.16371094 7.35032227 508.32742188 6.50048828 508.49609375 C-48.69112375 519.07749213 -110.6722105 505.49218033 -157.30859375 474.5546875 C-176.32520644 461.53824034 -194.45334441 446.8631056 -208.71044922 428.64013672 C-209.6268065 427.47465239 -210.55117044 426.31544377 -211.48095703 425.16064453 C-234.77323526 396.23001376 -249.69163918 362.32221014 -257 326 C-257.16516113 325.20770996 -257.33032227 324.41541992 -257.50048828 323.59912109 C-267.29476083 274.46570213 -257.58305744 221.6330057 -234.65893555 177.68969727 C-231.63216461 171.72894847 -229.95573001 166.57054842 -229.35546875 159.86328125 C-226.99289209 140.83285604 -208.56797325 120.36355769 -194 109 C-193.10667969 108.27039063 -192.21335937 107.54078125 -191.29296875 106.7890625 C-171.16786708 90.73961035 -149.01421637 79.92284503 -125 71 C-125.59167969 70.76925781 -126.18335938 70.53851563 -126.79296875 70.30078125 C-132.73649419 67.84774383 -136.92772373 65.39099754 -140.375 59.75 C-141.51382116 54.73918691 -141.34108433 50.35005059 -138.75390625 45.81640625 C-131.00113701 35.98135846 -118.8437824 33.61848298 -107 32 C-84.24611844 29.88133501 -65.30324986 39.75237081 -47 52 C-35.41552077 41.36622271 -27.18321009 26.94386372 -21.75 12.25 C-19.33807987 5.89717466 -15.12110448 2.45093538 -9.0390625 -0.328125 C-5.57805026 -1.46853516 -3.448662 -1.1084985 0 0 Z M50 90 C48.47166538 91.96196924 46.98179043 93.94087815 45.5 95.9375 C31.71065409 114.05137349 13.14887725 126.02570472 -9.3125 130.6875 C-17.60794494 131.39050381 -25.57333034 131.46859205 -33.68359375 129.4375 C-36.48713147 128.9079954 -39.15369842 128.93447363 -42 129 C-42.25579834 129.49177734 -42.51159668 129.98355469 -42.77514648 130.49023438 C-43.99325867 132.82822827 -45.21484389 135.16437903 -46.4375 137.5 C-46.88834961 138.36206055 -47.33919922 139.22412109 -47.80371094 140.11230469 C-50.31990591 144.89642067 -52.90440199 149.62301116 -55.61865234 154.29736328 C-62.23316248 165.71360241 -66.8369284 177.3477136 -70.04296875 190.171875 C-71.00190242 193.00562185 -71.6273142 194.24093984 -74 196 C-77.1875 197.0625 -77.1875 197.0625 -81 197 C-87.41019589 193.63759169 -90.94974056 188.72504152 -94.1875 182.4375 C-94.60966797 181.64609619 -95.03183594 180.85469238 -95.46679688 180.03930664 C-102.66924772 166.27867363 -106.09112276 153.47483096 -107 138 C-109.12570312 138.47603774 -111.25054427 138.95592598 -113.375 139.4375 C-114.55835938 139.70433594 -115.74171875 139.97117188 -116.9609375 140.24609375 C-119.89494581 140.85634695 -119.89494581 140.85634695 -122 142 C-129.49513742 142.47326125 -136.7714489 141.99498397 -144.1875 141 C-165.10096295 138.20437321 -165.10096295 138.20437321 -184 146 C-192.27346617 152.6284901 -199.58188187 159.82687914 -205 169 C-205.33273926 169.55461914 -205.66547852 170.10923828 -206.00830078 170.68066406 C-230.94805504 212.51148451 -242.43433274 261.47412736 -234 310 C-233.84934082 310.8883252 -233.69868164 311.77665039 -233.54345703 312.69189453 C-228.30039081 342.66450458 -216.69292037 371.17768145 -199 396 C-198.58395508 396.58426758 -198.16791016 397.16853516 -197.73925781 397.77050781 C-191.87092403 405.90054677 -185.30791667 413.32099396 -178.38134766 420.55566406 C-177.15491961 421.83801618 -175.94170513 423.13297661 -174.73046875 424.4296875 C-168.92181724 430.48620354 -162.48085187 435.60264545 -155.79541016 440.64453125 C-154.64457401 441.51337029 -153.4979877 442.38788469 -152.35693359 443.26953125 C-135.98164964 455.90060428 -117.41637036 465.0560129 -98 472 C-96.90171875 472.39574219 -95.8034375 472.79148437 -94.671875 473.19921875 C-78.9806284 478.39540382 -61.89255094 482.09381638 -45.3515625 482.23828125 C-44.43013962 482.24816574 -43.50871674 482.25805023 -42.55937195 482.26823425 C15.89442459 482.76579827 69.13012549 466.60860325 111.83984375 425.1015625 C112.38882324 424.56176758 112.93780273 424.02197266 113.50341797 423.46582031 C114.75708931 422.23791775 116.03410224 421.03390785 117.31640625 419.8359375 C131.71222827 406.16717719 142.83040812 388.46194843 152 371 C152.34417969 370.34580078 152.68835938 369.69160156 153.04296875 369.01757812 C176.89271285 322.91721069 180.66886129 266.85456236 165.47143555 217.46801758 C159.30396852 198.22781446 150.79112034 179.46876771 139 163 C138.28457031 161.99453125 137.56914062 160.9890625 136.83203125 159.953125 C124.45879221 143.04668156 110.55508816 127.80097586 93.70898438 115.28222656 C92.10297785 114.07726281 90.52682821 112.83279466 88.953125 111.5859375 C70.70774739 97.63132284 70.70774739 97.63132284 50 90 Z " fill="#FCFBFA" transform="translate(296,1)"/>
<path d="M0 0 C0.66 0 1.32 0 2 0 C7.05821024 23.4889358 5.08883296 44.57909459 -7.9140625 64.79296875 C-8.94660156 66.38044922 -8.94660156 66.38044922 -10 68 C-11.00749582 69.66214619 -12.01067725 71.32697332 -13 73 C1.26257733 77.53809279 13.81118791 77.95775062 27.171875 71.1875 C37.06709858 65.74662178 45.31838325 58.2175435 53 50 C54.32381961 53.97145884 53.02629651 56.31183252 51.5 60 C51.08451904 61.00703979 51.08451904 61.00703979 50.66064453 62.03442383 C42.25028455 81.79288016 26.76203218 95.48054736 7.0625 103.5 C-10.16400843 110.24814259 -28.96777686 106.77294101 -46 101 C-45.896875 102.2375 -45.79375 103.475 -45.6875 104.75 C-45.83008348 116.31708445 -53.43369483 126.22323765 -59.18579102 135.77954102 C-65.71742026 146.71598382 -70.38248195 157.4634662 -73 170 C-73.66 170 -74.32 170 -75 170 C-82.68677798 157.44937987 -89.11932867 144.8612589 -89.1328125 129.80078125 C-89.13376923 129.12452194 -89.13472595 128.44826263 -89.13571167 127.75151062 C-89.13638906 126.33035183 -89.13456566 124.90918987 -89.13037109 123.48803711 C-89.12499139 121.30901206 -89.13034377 119.13019078 -89.13671875 116.95117188 C-89.13605838 115.56770788 -89.13477807 114.18424401 -89.1328125 112.80078125 C-89.13168457 111.54434814 -89.13055664 110.28791504 -89.12939453 108.9934082 C-89 106 -89 106 -88 104 C-88.66 104 -89.32 104 -90 104 C-90.495 105.485 -90.495 105.485 -91 107 C-93.48582778 108.46782212 -95.90421702 109.75890488 -98.5 111 C-99.23468506 111.35449219 -99.96937012 111.70898438 -100.72631836 112.07421875 C-102.81020614 113.06626089 -104.90251323 114.03711396 -107 115 C-107.83660156 115.391875 -108.67320312 115.78375 -109.53515625 116.1875 C-118.63352791 119.8338609 -129.16404105 118.33781617 -138.625 117 C-155.01592632 114.70048733 -169.54213073 114.00205332 -183.5 123.6875 C-192.14064752 130.27782438 -199.66848145 137.13168097 -206 146 C-206.33 145.34 -206.66 144.68 -207 144 C-195.8389115 115.11010666 -167.54710636 92.4158175 -139.92822266 80.07421875 C-131.85287908 76.65823367 -123.74883491 73.98344568 -115 73 C-113.56720703 72.83564453 -113.56720703 72.83564453 -112.10546875 72.66796875 C-102.42079575 71.75432035 -92.71620542 71.90766014 -83 72 C-83.32613281 71.33355469 -83.65226562 70.66710937 -83.98828125 69.98046875 C-86.30204686 65.10040264 -88.20971366 60.53409716 -89.375 55.25 C-91.5037071 47.13789999 -96.53557185 43.74611419 -103.49291992 39.6706543 C-106.30521398 38.06801742 -109.14469652 36.52467661 -112 35 C-104.34159718 29.89439812 -92.15351404 31.25754459 -83.3125 32.53125 C-68.19018865 35.81250624 -56.25245775 43.29798046 -45.41015625 54.15625 C-43.24573986 56.17322071 -43.24573986 56.17322071 -41.04296875 56.09765625 C-38.04206177 54.48531426 -35.69270192 52.27398064 -33.25 49.9375 C-32.45275513 49.18496948 -32.45275513 49.18496948 -31.6394043 48.41723633 C-30.57406006 47.40836195 -29.51173928 46.39628422 -28.45263672 45.38085938 C-27.23943481 44.22760392 -25.99970231 43.10234155 -24.75390625 41.984375 C-13.36313905 31.4416126 -4.52344633 14.72961417 0 0 Z " fill="#4EC128" transform="translate(290,14)"/>
<path d="M0 0 C9.71560735 4.0085373 17.72812614 15.97923824 24 24 C25.02064491 25.26838081 26.0414912 26.53659959 27.0625 27.8046875 C35.14799539 37.97209856 41.84972072 48.56780347 48 60 C48.36963867 60.67885254 48.73927734 61.35770508 49.12011719 62.05712891 C76.95941291 113.61755725 81.67464863 176.51419607 65.68359375 232.51953125 C52.68398092 275.82348607 26.66243816 315.96227798 -9 344 C-9.96292969 344.77988281 -10.92585938 345.55976563 -11.91796875 346.36328125 C-41.70762685 370.0364316 -76.74179901 384.92018718 -114 392 C-114.82483887 392.16371094 -115.64967773 392.32742188 -116.49951172 392.49609375 C-171.69112375 403.07749213 -233.6722105 389.49218033 -280.30859375 358.5546875 C-299.32520644 345.53824034 -317.45334441 330.8631056 -331.71044922 312.64013672 C-332.6268065 311.47465239 -333.55117044 310.31544377 -334.48095703 309.16064453 C-357.77323526 280.23001376 -372.69163918 246.32221014 -380 210 C-380.16516113 209.20770996 -380.33032227 208.41541992 -380.50048828 207.59912109 C-390.29476083 158.46570213 -380.58305744 105.6330057 -357.65893555 61.68969727 C-354.63216461 55.72894847 -352.95573001 50.57054842 -352.35546875 43.86328125 C-350.61108384 29.81235664 -339.56555502 15.85226103 -330 6 C-330 10.03289534 -331.52597414 11.15027224 -334.0625 14.25 C-340.49139338 22.40621131 -347.50668198 33.61558604 -346.8203125 44.3125 C-346.77599123 49.03753275 -348.31132719 52.11559915 -350.875 56 C-367.29611009 83.07620501 -376.92498576 118.23274661 -377.23828125 149.93359375 C-377.24816574 150.76039642 -377.25805023 151.5871991 -377.26823425 152.4390564 C-377.61774849 189.30644822 -372.22596717 223.44663411 -356 257 C-355.60554688 257.81791016 -355.21109375 258.63582031 -354.8046875 259.47851562 C-349.16010637 271.01349028 -342.63774914 281.6828137 -335 292 C-334.56075195 292.59619141 -334.12150391 293.19238281 -333.66894531 293.80664062 C-306.36308361 330.52482678 -268.35339173 357.49912371 -225 372 C-224.18450684 372.27537598 -223.36901367 372.55075195 -222.52880859 372.83447266 C-166.19109015 391.42692837 -105.02538994 385.16104033 -52.23266602 358.71923828 C-41.56907932 353.24298855 -31.59137127 347.18310305 -22 340 C-21.40960938 339.56365234 -20.81921875 339.12730469 -20.2109375 338.67773438 C24.82093136 305.20140014 52.83737994 257.29922848 65 203 C65.1949707 202.14631836 65.38994141 201.29263672 65.59082031 200.41308594 C71.0109326 175.3852252 70.41503986 144.96201303 65 120 C64.82839355 119.15743652 64.65678711 118.31487305 64.47998047 117.44677734 C55.96788027 76.10337735 36.33621577 39.61910227 7.61328125 8.859375 C4.97614073 5.97389389 2.47982666 3.02047355 0 0 Z " fill="#010101" transform="translate(419,117)"/>
<path d="M0 0 C1.34533468 2.69066936 0.68775294 3.67719934 -0.1875 6.5234375 C-0.61228638 7.9168335 -0.61228638 7.9168335 -1.0456543 9.33837891 C-1.36058838 10.34046387 -1.67552246 11.34254883 -2 12.375 C-2.31815674 13.40415527 -2.63631348 14.43331055 -2.96411133 15.49365234 C-5.33984897 23.09811574 -7.90624029 30.62489576 -10.57958984 38.12915039 C-12.55025462 43.66655094 -14.35187133 49.23210045 -16.0390625 54.86328125 C-17.13171689 58.4299539 -18.30854199 61.96549053 -19.5 65.5 C-21.02318168 70.02316245 -22.49373014 74.55618432 -23.875 79.125 C-36.65798714 120.77279681 -36.65798714 120.77279681 -52.5390625 129.71484375 C-62.77904674 135.06239108 -72.72246988 136.82899784 -84 133.5 C-94.5903777 129.59393862 -103.33867097 122.71241244 -108.2109375 112.44921875 C-112.50527105 102.17022887 -114.08832374 91.37883063 -109.9375 80.75 C-103.22606376 66.54194556 -91.46422579 59.45675337 -78.625 51.1875 C-76.59481335 49.87146195 -74.56487734 48.55503722 -72.53515625 47.23828125 C-71.47184082 46.54943848 -70.40852539 45.8605957 -69.31298828 45.15087891 C-64.15320903 41.80101486 -59.00798363 38.42905196 -53.86346436 35.05581665 C-52.05847622 33.87236178 -50.2531511 32.68942252 -48.44775391 31.5065918 C-41.7000559 27.0850733 -34.95621065 22.65772739 -28.21484375 18.2265625 C-26.02313125 16.78643386 -23.83137828 15.34636683 -21.63961792 13.90631104 C-19.54058049 12.52667242 -17.4422765 11.14592335 -15.34399414 9.76513672 C-14.05227978 8.91628989 -12.76053336 8.06749183 -11.46875 7.21875 C-10.88669296 6.83522369 -10.30463593 6.45169739 -9.7049408 6.05654907 C-6.51270826 3.960945 -3.28897131 1.94027851 0 0 Z " fill="#FEFCFC" transform="translate(331,212)"/>
<path d="M0 0 C20.93487337 9.45133728 45.61506445 35.21383415 55 56 C55.71833286 60.38183043 55.58629796 62.05773542 53.25 65.8125 C50.42393667 68.56006157 48.50781727 69.67398545 44.6875 70.5 C39.2119437 69.48129185 36.04361279 65.45275644 32.9375 61.12890625 C31.82807804 59.47864109 30.71889144 57.82819625 29.61816406 56.17211914 C25.3562801 49.85520689 20.27845895 44.47195085 15 39 C14.30648438 38.24332031 13.61296875 37.48664063 12.8984375 36.70703125 C7.41480862 30.89523153 1.20891332 26.20199267 -5.23681641 21.51586914 C-5.95144043 20.98856201 -6.66606445 20.46125488 -7.40234375 19.91796875 C-8.04679443 19.45156982 -8.69124512 18.9851709 -9.35522461 18.50463867 C-12.06069031 16.0296817 -12.89226281 13.70798723 -13.4375 10.125 C-12.82244681 5.7317629 -11.08098355 4.15434031 -8 1 C-5.18528662 -0.40735669 -3.12471622 -0.23330195 0 0 Z " fill="#FEFBFB" transform="translate(367,130)"/>
<path d="M0 0 C-3.71765313 12.57352602 -7.65967945 25.06378703 -11.83691406 37.49145508 C-13.64913461 42.89947193 -15.34920976 48.33453012 -17.00390625 53.79296875 C-18.11793412 57.37970161 -19.30183495 60.94077159 -20.5 64.5 C-23.31336092 72.87426072 -25.9756588 81.28679992 -28.3359375 89.80078125 C-33.01278823 106.42573329 -38.59609032 121.205528 -54.01171875 130.48828125 C-64.02022018 135.5514055 -75.8249265 136.93175289 -86.5625 133.5 C-95.99186444 129.63014523 -103.56535999 123.62204491 -109 115 C-108.505 114.01 -108.505 114.01 -108 113 C-107.34515625 113.53109375 -106.6903125 114.0621875 -106.015625 114.609375 C-96.27052934 122.15218915 -86.49946956 126.50728898 -74 125 C-64.16317159 123.07411492 -53.37737811 118.14368857 -47.44140625 109.8125 C-41.82242035 100.84454245 -38.51585032 90.89087575 -35.0625 80.9375 C-34.71477539 79.9381543 -34.36705078 78.93880859 -34.00878906 77.90917969 C-31.69974114 71.20500804 -29.59262064 64.46919907 -27.65258789 57.65014648 C-26.31664918 52.97691592 -24.73939635 48.45792153 -23.0234375 43.9140625 C-21.74443864 40.27233293 -20.68859555 36.58422687 -19.625 32.875 C-18.97816245 30.67050235 -18.32629215 28.4675939 -17.67089844 26.265625 C-17.21958459 24.74153747 -16.7750333 23.21543276 -16.33691406 21.6875 C-11.79162138 6.06594257 -11.79162138 6.06594257 -3.953125 0.93359375 C-2 0 -2 0 0 0 Z " fill="#B22B10" transform="translate(338,221)"/>
<path d="M0 0 C4.53708972 3.2667046 8.57249537 7.81915197 9.85546875 13.3359375 C10.66573487 19.72927017 10.1315211 24.28152273 6.3515625 29.58203125 C2.60931424 33.9691578 -1.76712889 37.77483551 -7.58984375 38.7421875 C-15.1169629 39.00552695 -20.48692561 37.44406345 -26.14453125 32.3359375 C-30.19693508 27.02400275 -32.0061115 21.39709364 -31.62890625 14.72265625 C-30.24164354 7.88703114 -25.6615837 3.24384965 -20.14453125 -0.6640625 C-13.69926168 -4.32218847 -6.29284214 -3.54207881 0 0 Z " fill="#E93814" transform="translate(270.14453125,288.6640625)"/>
<path d="M0 0 C3.13900769 2.25903482 5.98007882 4.9406377 7.8671875 8.34375 C7.5371875 9.33375 7.2071875 10.32375 6.8671875 11.34375 C5.9184375 10.84875 4.9696875 10.35375 3.9921875 9.84375 C-1.95870541 7.31401819 -7.75292703 7.66944912 -13.8828125 9.40625 C-18.37617042 12.08498261 -21.78009704 15.63831909 -24.1328125 20.34375 C-24.360314 22.21431791 -24.54244061 24.09060958 -24.6953125 25.96875 C-24.82099609 27.47308594 -24.82099609 27.47308594 -24.94921875 29.0078125 C-25.00980469 29.77867187 -25.07039062 30.54953125 -25.1328125 31.34375 C-29.77794429 27.16313139 -31.22048265 23.70527408 -31.5703125 17.53125 C-31.43036027 11.26138997 -28.93805887 7.22977571 -24.640625 2.80859375 C-17.32356739 -3.69335122 -8.56178906 -4.8138573 0 0 Z " fill="#B32C11" transform="translate(270.1328125,288.65625)"/>
<path d="M0 0 C0 3 0 3 -2 6 C-1.92168017 9.60271239 -1.28522012 11.58235626 0.75 14.5625 C4.38934638 17.89324683 9.25529477 19.09965136 13.81640625 20.73046875 C17.79796139 22.31820546 20.69132663 24.30689377 24 27 C20.57139401 30.42860599 15.66018414 30.94530463 10.91015625 31.04296875 C4.38663607 30.48750069 -1.07921313 28.1670416 -5.4375 23.25 C-8.01647799 17.88572577 -8.6248551 14.04813617 -6.875 8.3125 C-4.95123861 4.91385487 -2.90391093 2.58997461 0 0 Z " fill="#030303" transform="translate(163,41)"/>
<path d="M0 0 C6.14276466 4.09517644 7.50382896 7.91099913 9 15 C9.2784375 16.25296875 9.556875 17.5059375 9.84375 18.796875 C12.3713689 30.9879861 13.40253658 43.69668769 11 56 C8.69 56 6.38 56 4 56 C4.144375 55.34257813 4.28875 54.68515625 4.4375 54.0078125 C7.79559378 36.7975819 7.41194939 16.19277232 0 0 Z " fill="#020202" transform="translate(300,4)"/>
<path d="M0 0 C0.33 0.66 0.66 1.32 1 2 C-0.03768112 4.80052537 -1.14352493 7.47249845 -2.375 10.1875 C-2.737146 10.98961914 -3.09929199 11.79173828 -3.47241211 12.61816406 C-13.49110257 34.3235401 -13.49110257 34.3235401 -23 41 C-21.37337271 37.54032063 -19.37240768 34.40484108 -17.3125 31.1875 C-12.85366941 24.08954031 -9.43514116 16.63073341 -6 9 C-2.35572375 1.17786187 -2.35572375 1.17786187 0 0 Z " fill="#020202" transform="translate(280,5)"/>
<path d="M0 0 C3 1 3 1 5.1875 4.3125 C7.73449811 9.66897312 7.54548204 15.18748643 7 21 C6.67 21.66 6.34 22.32 6 23 C4.02 22.34 2.04 21.68 0 21 C0.165 20.05125 0.33 19.1025 0.5 18.125 C1.35577427 12.12235474 1.69898216 5.86553365 0 0 Z " fill="#020202" transform="translate(354,54)"/>
<path d="M0 0 C0 3 0 3 -1.57421875 4.9375 C-8.61165049 11.80582524 -8.61165049 11.80582524 -13 14 C-11.43416404 9.96278439 -8.55826135 7.52929418 -5.375 4.75 C-4.859375 4.29109375 -4.34375 3.8321875 -3.8125 3.359375 C-2.5465398 2.23407704 -1.27392058 1.11627823 0 0 Z " fill="#555555" transform="translate(103,109)"/>
</svg>
